<svg version="1.1" xmlns="http://www.w3.org/2000/svg" xmlns:xlink="http://www.w3.org/1999/xlink" width="762.0006963784923" height="170.75"><defs></defs><g transform="translate(0,0)"><g><rect fill="#FFFFFF" stroke="none" x="0" y="0" width="762.0006963784923" height="170.75"></rect></g><g transform="translate(0,0) matrix(1,0,0,1,52,39)"><g><g transform="translate(0,0) scale(0.6,0.405)"><g><path fill="#EEEEEE" stroke="none" d="M 0 0 L 100 0 Q 100 0 100 0 L 100 100 Q 100 100 100 100 L 0 100 Q 0 100 0 100 L 0 0 Q 0 0 0 0 Z"></path><g transform="scale(1.6666666666666667,2.4691358024691357)"><path fill="none" stroke="#333333" d="M 0 0 L 60 0 Q 60 0 60 0 L 60 40.5 Q 60 40.5 60 40.5 L 0 40.5 Q 0 40.5 0 40.5 L 0 0 Q 0 0 0 0 Z" stroke-miterlimit="10" stroke-width="2"></path></g></g><g><g transform="scale(1.6666666666666667,2.4691358024691357)"><path fill="rgb(0,0,0)" stroke="none" d="M 1.2 0.81 L 1.2 39.285000000000004 L 58.199999999999996 39.285000000000004 L 58.199999999999996 1.215 L 1.7999999999999998 1.215 Z" fill-opacity="0" opacity="0"></path><path fill="none" stroke="#3C7626" d="M 1.2 0.81 M 1.2 0.81 L 1.2 4.8100000000000005 M 1.2 4.8100000000000005 M 1.2 6.8100000000000005 L 1.2 10.81 M 1.2 10.81 M 1.2 12.81 L 1.2 16.810000000000002 M 1.2 16.810000000000002 M 1.2 18.810000000000002 L 1.2 22.810000000000002 M 1.2 22.810000000000002 M 1.2 24.810000000000002 L 1.2 28.810000000000002 M 1.2 28.810000000000002 M 1.2 30.810000000000002 L 1.2 34.81 M 1.2 34.81 M 1.2 36.81 L 1.2 39.285000000000004 L 2.7249999999999988 39.285000000000004 M 2.7249999999999988 39.285000000000004 M 4.724999999999999 39.285000000000004 L 8.724999999999998 39.285000000000004 M 8.724999999999998 39.285000000000004 M 10.724999999999998 39.285000000000004 L 14.724999999999998 39.285000000000004 M 14.724999999999998 39.285000000000004 M 16.724999999999998 39.285000000000004 L 20.724999999999998 39.285000000000004 M 20.724999999999998 39.285000000000004 M 22.724999999999998 39.285000000000004 L 26.724999999999998 39.285000000000004 M 26.724999999999998 39.285000000000004 M 28.724999999999998 39.285000000000004 L 32.724999999999994 39.285000000000004 M 32.724999999999994 39.285000000000004 M 34.724999999999994 39.285000000000004 L 38.724999999999994 39.285000000000004 M 38.724999999999994 39.285000000000004 M 40.724999999999994 39.285000000000004 L 44.724999999999994 39.285000000000004 M 44.724999999999994 39.285000000000004 M 46.724999999999994 39.285000000000004 L 50.724999999999994 39.285000000000004 M 50.724999999999994 39.285000000000004 M 52.724999999999994 39.285000000000004 L 56.724999999999994 39.285000000000004 M 56.724999999999994 39.285000000000004 M 58.199999999999996 38.760000000000005 L 58.199999999999996 34.760000000000005 M 58.199999999999996 34.760000000000005 M 58.199999999999996 32.760000000000005 L 58.199999999999996 28.760000000000005 M 58.199999999999996 28.760000000000005 M 58.199999999999996 26.760000000000005 L 58.199999999999996 22.760000000000005 M 58.199999999999996 22.760000000000005 M 58.199999999999996 20.760000000000005 L 58.199999999999996 16.760000000000005 M 58.199999999999996 16.760000000000005 M 58.199999999999996 14.760000000000005 L 58.199999999999996 10.760000000000005 M 58.199999999999996 10.760000000000005 M 58.199999999999996 8.760000000000005 L 58.199999999999996 4.760000000000005 M 58.199999999999996 4.760000000000005 M 58.199999999999996 2.760000000000005 L 58.199999999999996 1.215 L 55.745000000000005 1.215 M 55.745000000000005 1.215 M 53.745000000000005 1.215 L 49.745000000000005 1.215 M 49.745000000000005 1.215 M 47.745000000000005 1.215 L 43.745000000000005 1.215 M 43.745000000000005 1.215 M 41.745000000000005 1.215 L 37.745000000000005 1.215 M 37.745000000000005 1.215 M 35.745000000000005 1.215 L 31.745000000000005 1.215 M 31.745000000000005 1.215 M 29.745000000000005 1.215 L 25.745000000000005 1.215 M 25.745000000000005 1.215 M 23.745000000000005 1.215 L 19.745000000000005 1.215 M 19.745000000000005 1.215 M 17.745000000000005 1.215 L 13.745000000000005 1.215 M 13.745000000000005 1.215 M 11.745000000000005 1.215 L 7.7450000000000045 1.215 M 7.7450000000000045 1.215 M 5.7450000000000045 1.215 L 1.7999999999999998 1.215 Z" stroke-miterlimit="10" stroke-width="2" opacity="0"></path></g></g></g></g></g><g transform="scale(1,1) matrix(1,0,0,1,53.2,39) translate(2,6.25)"><text fill="#000000" stroke="none" font-family="Arial" font-size="12px" font-style="normal" font-weight="normal" text-decoration="none" x="4.800000000000004" y="11">English </text><text fill="#000000" stroke="none" font-family="Arial" font-size="12px" font-style="normal" font-weight="normal" text-decoration="none" x="18.300000000000004" y="25">LM</text></g><g transform="translate(0,0) matrix(1,0,0,1,182.8,39)"><g><g transform="translate(0,0) scale(0.9,0.405)"><g><path fill="#EEEEEE" stroke="none" d="M 0 0 L 100 0 Q 100 0 100 0 L 100 100 Q 100 100 100 100 L 0 100 Q 0 100 0 100 L 0 0 Q 0 0 0 0 Z"></path><g transform="scale(1.1111111111111112,2.4691358024691357)"><path fill="none" stroke="#333333" d="M 0 0 L 90 0 Q 90 0 90 0 L 90 40.5 Q 90 40.5 90 40.5 L 0 40.5 Q 0 40.5 0 40.5 L 0 0 Q 0 0 0 0 Z" stroke-miterlimit="10" stroke-width="2"></path></g></g><g><g transform="scale(1.1111111111111112,2.4691358024691357)"><path fill="rgb(0,0,0)" stroke="none" d="M 1.8 0.81 L 1.8 39.285000000000004 L 87.3 39.285000000000004 L 87.3 1.215 L 2.7 1.215 Z" fill-opacity="0" opacity="0"></path><path fill="none" stroke="#3C7626" d="M 1.8 0.81 M 1.8 0.81 L 1.8 4.8100000000000005 M 1.8 4.8100000000000005 M 1.8 6.8100000000000005 L 1.8 10.81 M 1.8 10.81 M 1.8 12.81 L 1.8 16.810000000000002 M 1.8 16.810000000000002 M 1.8 18.810000000000002 L 1.8 22.810000000000002 M 1.8 22.810000000000002 M 1.8 24.810000000000002 L 1.8 28.810000000000002 M 1.8 28.810000000000002 M 1.8 30.810000000000002 L 1.8 34.81 M 1.8 34.81 M 1.8 36.81 L 1.8 39.285000000000004 L 3.3249999999999984 39.285000000000004 M 3.3249999999999984 39.285000000000004 M 5.324999999999998 39.285000000000004 L 9.325 39.285000000000004 M 9.325 39.285000000000004 M 11.325 39.285000000000004 L 15.325 39.285000000000004 M 15.325 39.285000000000004 M 17.325 39.285000000000004 L 21.325 39.285000000000004 M 21.325 39.285000000000004 M 23.325 39.285000000000004 L 27.325 39.285000000000004 M 27.325 39.285000000000004 M 29.325 39.285000000000004 L 33.325 39.285000000000004 M 33.325 39.285000000000004 M 35.325 39.285000000000004 L 39.325 39.285000000000004 M 39.325 39.285000000000004 M 41.325 39.285000000000004 L 45.325 39.285000000000004 M 45.325 39.285000000000004 M 47.325 39.285000000000004 L 51.325 39.285000000000004 M 51.325 39.285000000000004 M 53.325 39.285000000000004 L 57.325 39.285000000000004 M 57.325 39.285000000000004 M 59.325 39.285000000000004 L 63.325 39.285000000000004 M 63.325 39.285000000000004 M 65.325 39.285000000000004 L 69.325 39.285000000000004 M 69.325 39.285000000000004 M 71.325 39.285000000000004 L 75.325 39.285000000000004 M 75.325 39.285000000000004 M 77.325 39.285000000000004 L 81.325 39.285000000000004 M 81.325 39.285000000000004 M 83.325 39.285000000000004 L 87.3 39.285000000000004 L 87.3 39.26 M 87.3 39.26 M 87.3 37.26 L 87.3 33.26 M 87.3 33.26 M 87.3 31.259999999999998 L 87.3 27.259999999999998 M 87.3 27.259999999999998 M 87.3 25.259999999999998 L 87.3 21.259999999999998 M 87.3 21.259999999999998 M 87.3 19.259999999999998 L 87.3 15.259999999999998 M 87.3 15.259999999999998 M 87.3 13.259999999999998 L 87.3 9.259999999999998 M 87.3 9.259999999999998 M 87.3 7.259999999999998 L 87.3 3.259999999999998 M 87.3 3.259999999999998 M 87.3 1.259999999999998 L 87.3 1.215 L 83.345 1.215 M 83.345 1.215 M 81.345 1.215 L 77.345 1.215 M 77.345 1.215 M 75.345 1.215 L 71.345 1.215 M 71.345 1.215 M 69.345 1.215 L 65.345 1.215 M 65.345 1.215 M 63.345 1.215 L 59.345 1.215 M 59.345 1.215 M 57.345 1.215 L 53.345 1.215 M 53.345 1.215 M 51.345 1.215 L 47.345 1.215 M 47.345 1.215 M 45.345 1.215 L 41.345 1.215 M 41.345 1.215 M 39.345 1.215 L 35.345 1.215 M 35.345 1.215 M 33.345 1.215 L 29.345 1.215 M 29.345 1.215 M 27.345 1.215 L 23.345 1.215 M 23.345 1.215 M 21.345 1.215 L 17.345 1.215 M 17.345 1.215 M 15.344999999999999 1.215 L 11.344999999999999 1.215 M 11.344999999999999 1.215 M 9.344999999999999 1.215 L 5.344999999999999 1.215 M 5.344999999999999 1.215 M 3.344999999999999 1.215 L 2.7 1.215 Z" stroke-miterlimit="10" stroke-width="2" opacity="0"></path></g></g></g></g></g><g transform="scale(1,1) matrix(1,0,0,1,184.60000000000002,39) translate(2,6.25)"><text fill="#000000" stroke="none" font-family="Arial" font-size="12px" font-style="normal" font-weight="normal" text-decoration="none" x="19.199999999999996" y="11">English</text><text fill="#000000" stroke="none" font-family="Arial" font-size="12px" font-style="normal" font-weight="normal" text-decoration="none" x="60.199999999999996" y="11">
</text><text fill="#000000" stroke="none" font-family="Arial" font-size="12px" font-style="normal" font-weight="normal" text-decoration="none" x="3.1999999999999957" y="25">Pronunciation</text></g><g transform="translate(0,0) matrix(1,0,0,1,112.80000000000001,50.5)"><g><g transform="translate(0,0) scale(0.7,0.2)"><g><g transform="scale(1.4285714285714286,5)"><path fill="#CCCCCC" stroke="#333333" d="M 0 6 L 59.99999999999999 6 L 59.99999999999999 0 L 70 10 L 59.99999999999999 20 L 59.99999999999999 14 L 0 14 L 0 6 L 0 6 Z" stroke-miterlimit="10" stroke-width="2"></path></g></g></g></g></g><g transform="translate(0,0) matrix(1,0,0,1,344,42)"><g><g transform="translate(0,0) scale(0.7,0.375)"><g><path fill="#EEEEEE" stroke="none" d="M 0 0 L 100 0 Q 100 0 100 0 L 100 100 Q 100 100 100 100 L 0 100 Q 0 100 0 100 L 0 0 Q 0 0 0 0 Z"></path><g transform="scale(1.4285714285714286,2.6666666666666665)"><path fill="none" stroke="#333333" d="M 0 0 L 70 0 Q 70 0 70 0 L 70 37.5 Q 70 37.5 70 37.5 L 0 37.5 Q 0 37.5 0 37.5 L 0 0 Q 0 0 0 0 Z" stroke-miterlimit="10" stroke-width="2"></path></g></g><g><g transform="scale(1.4285714285714286,2.6666666666666665)"><path fill="rgb(0,0,0)" stroke="none" d="M 1.4 0.75 L 1.4 36.375 L 67.89999999999999 36.375 L 67.89999999999999 1.125 L 2.0999999999999996 1.125 Z" fill-opacity="0" opacity="0"></path><path fill="none" stroke="#3C7626" d="M 1.4 0.75 M 1.4 0.75 L 1.4 4.75 M 1.4 4.75 M 1.4 6.75 L 1.4 10.75 M 1.4 10.75 M 1.4 12.75 L 1.4 16.75 M 1.4 16.75 M 1.4 18.75 L 1.4 22.75 M 1.4 22.75 M 1.4 24.75 L 1.4 28.75 M 1.4 28.75 M 1.4 30.75 L 1.4 34.75 M 1.4 34.75 M 1.775 36.375 L 5.775 36.375 M 5.775 36.375 M 7.775 36.375 L 11.775 36.375 M 11.775 36.375 M 13.775 36.375 L 17.775 36.375 M 17.775 36.375 M 19.775 36.375 L 23.775 36.375 M 23.775 36.375 M 25.775 36.375 L 29.775 36.375 M 29.775 36.375 M 31.775 36.375 L 35.775 36.375 M 35.775 36.375 M 37.775 36.375 L 41.775 36.375 M 41.775 36.375 M 43.775 36.375 L 47.775 36.375 M 47.775 36.375 M 49.775 36.375 L 53.775 36.375 M 53.775 36.375 M 55.775 36.375 L 59.775 36.375 M 59.775 36.375 M 61.775 36.375 L 65.775 36.375 M 65.775 36.375 M 67.775 36.375 L 67.89999999999999 36.375 L 67.89999999999999 32.499999999999986 M 67.89999999999999 32.499999999999986 M 67.89999999999999 30.499999999999986 L 67.89999999999999 26.499999999999986 M 67.89999999999999 26.499999999999986 M 67.89999999999999 24.499999999999986 L 67.89999999999999 20.499999999999986 M 67.89999999999999 20.499999999999986 M 67.89999999999999 18.499999999999986 L 67.89999999999999 14.499999999999986 M 67.89999999999999 14.499999999999986 M 67.89999999999999 12.499999999999986 L 67.89999999999999 8.499999999999986 M 67.89999999999999 8.499999999999986 M 67.89999999999999 6.499999999999986 L 67.89999999999999 2.499999999999986 M 67.89999999999999 2.499999999999986 M 67.27499999999998 1.125 L 63.27499999999998 1.125 M 63.27499999999998 1.125 M 61.27499999999998 1.125 L 57.27499999999998 1.125 M 57.27499999999998 1.125 M 55.27499999999998 1.125 L 51.27499999999998 1.125 M 51.27499999999998 1.125 M 49.27499999999998 1.125 L 45.27499999999998 1.125 M 45.27499999999998 1.125 M 43.27499999999998 1.125 L 39.27499999999998 1.125 M 39.27499999999998 1.125 M 37.27499999999998 1.125 L 33.27499999999998 1.125 M 33.27499999999998 1.125 M 31.274999999999977 1.125 L 27.274999999999977 1.125 M 27.274999999999977 1.125 M 25.274999999999977 1.125 L 21.274999999999977 1.125 M 21.274999999999977 1.125 M 19.274999999999977 1.125 L 15.274999999999977 1.125 M 15.274999999999977 1.125 M 13.274999999999977 1.125 L 9.274999999999977 1.125 M 9.274999999999977 1.125 M 7.274999999999977 1.125 L 3.2749999999999773 1.125 M 3.2749999999999773 1.125 Z" stroke-miterlimit="10" stroke-width="2" opacity="0"></path></g></g></g></g></g><g transform="scale(1,1) matrix(1,0,0,1,346,42) translate(2,-9.25)"><text fill="#000000" stroke="none" font-family="Arial" font-size="12px" font-style="normal" font-weight="normal" text-decoration="none" x="29.5" y="11">&#160;</text><text fill="#000000" stroke="none" font-family="Arial" font-size="12px" font-style="normal" font-weight="normal" text-decoration="none" x="4.5" y="25">Phoneme</text><text fill="#000000" stroke="none" font-family="Arial" font-size="12px" font-style="normal" font-weight="normal" text-decoration="none" x="7" y="39">Mapping</text><text fill="#000000" stroke="none" font-family="Arial" font-size="12px" font-style="normal" font-weight="normal" text-decoration="none" x="29.5" y="53">&#160;</text></g><g transform="translate(0,0) matrix(1,0,0,1,273,50.5)"><g><g transform="translate(0,0) scale(0.71,0.2)"><g><g transform="scale(1.4084507042253522,5)"><path fill="#CCCCCC" stroke="#333333" d="M 0 6 L 61 6 L 61 0 L 71 10 L 61 20 L 61 14 L 0 14 L 0 6 L 0 6 Z" stroke-miterlimit="10" stroke-width="2"></path></g></g></g></g></g><g transform="translate(0,0) matrix(1,0,0,1,488,42)"><g><g transform="translate(0,0) scale(0.7,0.375)"><g><path fill="#EEEEEE" stroke="none" d="M 0 0 L 100 0 Q 100 0 100 0 L 100 100 Q 100 100 100 100 L 0 100 Q 0 100 0 100 L 0 0 Q 0 0 0 0 Z"></path><g transform="scale(1.4285714285714286,2.6666666666666665)"><path fill="none" stroke="#333333" d="M 0 0 L 70 0 Q 70 0 70 0 L 70 37.5 Q 70 37.5 70 37.5 L 0 37.5 Q 0 37.5 0 37.5 L 0 0 Q 0 0 0 0 Z" stroke-miterlimit="10" stroke-width="2"></path></g></g><g><g transform="scale(1.4285714285714286,2.6666666666666665)"><path fill="rgb(0,0,0)" stroke="none" d="M 1.4 0.75 L 1.4 36.375 L 67.89999999999999 36.375 L 67.89999999999999 1.125 L 2.0999999999999996 1.125 Z" fill-opacity="0" opacity="0"></path><path fill="none" stroke="#3C7626" d="M 1.4 0.75 M 1.4 0.75 L 1.4 4.75 M 1.4 4.75 M 1.4 6.75 L 1.4 10.75 M 1.4 10.75 M 1.4 12.75 L 1.4 16.75 M 1.4 16.75 M 1.4 18.75 L 1.4 22.75 M 1.4 22.75 M 1.4 24.75 L 1.4 28.75 M 1.4 28.75 M 1.4 30.75 L 1.4 34.75 M 1.4 34.75 M 1.775 36.375 L 5.775 36.375 M 5.775 36.375 M 7.775 36.375 L 11.775 36.375 M 11.775 36.375 M 13.775 36.375 L 17.775 36.375 M 17.775 36.375 M 19.775 36.375 L 23.775 36.375 M 23.775 36.375 M 25.775 36.375 L 29.775 36.375 M 29.775 36.375 M 31.775 36.375 L 35.775 36.375 M 35.775 36.375 M 37.775 36.375 L 41.775 36.375 M 41.775 36.375 M 43.775 36.375 L 47.775 36.375 M 47.775 36.375 M 49.775 36.375 L 53.775 36.375 M 53.775 36.375 M 55.775 36.375 L 59.775 36.375 M 59.775 36.375 M 61.775 36.375 L 65.775 36.375 M 65.775 36.375 M 67.775 36.375 L 67.89999999999999 36.375 L 67.89999999999999 32.499999999999986 M 67.89999999999999 32.499999999999986 M 67.89999999999999 30.499999999999986 L 67.89999999999999 26.499999999999986 M 67.89999999999999 26.499999999999986 M 67.89999999999999 24.499999999999986 L 67.89999999999999 20.499999999999986 M 67.89999999999999 20.499999999999986 M 67.89999999999999 18.499999999999986 L 67.89999999999999 14.499999999999986 M 67.89999999999999 14.499999999999986 M 67.89999999999999 12.499999999999986 L 67.89999999999999 8.499999999999986 M 67.89999999999999 8.499999999999986 M 67.89999999999999 6.499999999999986 L 67.89999999999999 2.499999999999986 M 67.89999999999999 2.499999999999986 M 67.27499999999998 1.125 L 63.27499999999998 1.125 M 63.27499999999998 1.125 M 61.27499999999998 1.125 L 57.27499999999998 1.125 M 57.27499999999998 1.125 M 55.27499999999998 1.125 L 51.27499999999998 1.125 M 51.27499999999998 1.125 M 49.27499999999998 1.125 L 45.27499999999998 1.125 M 45.27499999999998 1.125 M 43.27499999999998 1.125 L 39.27499999999998 1.125 M 39.27499999999998 1.125 M 37.27499999999998 1.125 L 33.27499999999998 1.125 M 33.27499999999998 1.125 M 31.274999999999977 1.125 L 27.274999999999977 1.125 M 27.274999999999977 1.125 M 25.274999999999977 1.125 L 21.274999999999977 1.125 M 21.274999999999977 1.125 M 19.274999999999977 1.125 L 15.274999999999977 1.125 M 15.274999999999977 1.125 M 13.274999999999977 1.125 L 9.274999999999977 1.125 M 9.274999999999977 1.125 M 7.274999999999977 1.125 L 3.2749999999999773 1.125 M 3.2749999999999773 1.125 Z" stroke-miterlimit="10" stroke-width="2" opacity="0"></path></g></g></g></g></g><g transform="scale(1,1) matrix(1,0,0,1,489.4,42) translate(2,4.75)"><text fill="#000000" stroke="none" font-family="Arial" font-size="12px" font-style="normal" font-weight="normal" text-decoration="none" x="4.100000000000001" y="11">Katakana</text><text fill="#000000" stroke="none" font-family="Arial" font-size="12px" font-style="normal" font-weight="normal" text-decoration="none" x="56.1" y="11">
</text><text fill="#000000" stroke="none" font-family="Arial" font-size="12px" font-style="normal" font-weight="normal" text-decoration="none" x="0.6000000000000014" y="25">Transcriber</text></g><g transform="translate(0,0) matrix(1,0,0,1,414,50.5)"><g><g transform="translate(0,0) scale(0.74,0.2)"><g><g transform="scale(1.3513513513513513,5)"><path fill="#CCCCCC" stroke="#333333" d="M 0 6 L 64 6 L 64 0 L 74 10 L 64 20 L 64 14 L 0 14 L 0 6 L 0 6 Z" stroke-miterlimit="10" stroke-width="2"></path></g></g></g></g></g><g transform="scale(1,1) matrix(1,0,0,1,111.80000000000001,21) translate(2,0)"><text fill="#000000" stroke="none" font-family="Arial" font-size="12px" font-style="normal" font-weight="normal" text-decoration="none" x="7.5" y="11">computer</text></g><g transform="scale(1,1) matrix(1,0,0,1,252,20.5) translate(2,0)"><text fill="#000000" stroke="none" font-family="Arial" font-size="12px" font-style="normal" font-weight="normal" text-decoration="none" x="9.500000000000007" y="11">k ah m p y uw t er&#160;</text></g><g transform="scale(1,1) matrix(1,0,0,1,406,20.5) translate(2,0)"><text fill="#000000" stroke="none" font-family="Arial" font-size="12px" font-style="normal" font-weight="normal" text-decoration="none" x="5" y="11">ko n pyu u ta a</text></g><g transform="scale(1,1) matrix(1,0,0,1,623,52.75) translate(2,0)"><text fill="#000000" stroke="none" font-family="Arial" font-size="12px" font-style="normal" font-weight="normal" text-decoration="none" x="11.000000000000007" y="11">コンピューター</text></g><g transform="translate(0,0) matrix(1,0,0,1,558,50.5)"><g><g transform="translate(0,0) scale(0.74,0.2)"><g><g transform="scale(1.3513513513513513,5)"><path fill="#CCCCCC" stroke="#333333" d="M 0 6 L 64 6 L 64 0 L 74 10 L 64 20 L 64 14 L 0 14 L 0 6 L 0 6 Z" stroke-miterlimit="10" stroke-width="2"></path></g></g></g></g></g><g transform="matrix(1,0,0,1,16,82)"><g transform="translate(0,0)"><g transform="translate(-754,-86) translate(738,4) matrix(1,0,0,1,0,0)"><g><path fill="none" stroke="#333333" d="M 738.0006963784923 86.00000000000006 M 738.0006963784923 86.00000000000006 L 730.0006963784923 86.00000000000006 M 730.0006963784923 86.00000000000006 M 722.0006963784923 86.00000000000006 L 714.0006963784923 86.00000000000006 M 714.0006963784923 86.00000000000006 M 706.0006963784923 86.00000000000006 L 698.0006963784923 86.00000000000006 M 698.0006963784923 86.00000000000006 M 690.0006963784923 86.00000000000006 L 682.0006963784923 86.00000000000006 M 682.0006963784923 86.00000000000006 M 674.0006963784923 86.00000000000006 L 666.0006963784923 86.00000000000006 M 666.0006963784923 86.00000000000006 M 658.0006963784923 86.00000000000006 L 650.0006963784923 86.00000000000006 M 650.0006963784923 86.00000000000006 M 642.0006963784923 86.00000000000006 L 634.0006963784923 86.00000000000006 M 634.0006963784923 86.00000000000006 M 626.0006963784923 86.00000000000006 L 618.0006963784923 86.00000000000006 M 618.0006963784923 86.00000000000006 M 610.0006963784923 86.00000000000006 L 602.0006963784923 86.00000000000006 M 602.0006963784923 86.00000000000006 M 594.0006963784923 86.00000000000006 L 586.0006963784923 86.00000000000006 M 586.0006963784923 86.00000000000006 M 578.0006963784923 86.00000000000006 L 570.0006963784923 86.00000000000006 M 570.0006963784923 86.00000000000006 M 562.0006963784923 86.00000000000006 L 554.0006963784923 86.00000000000006 M 554.0006963784923 86.00000000000006 M 546.0006963784923 86.00000000000006 L 538.0006963784923 86.00000000000006 M 538.0006963784923 86.00000000000006 M 530.0006963784923 86.00000000000006 L 522.0006963784923 86.00000000000006 M 522.0006963784923 86.00000000000006 M 514.0006963784923 86.00000000000006 L 506.0006963784923 86.00000000000006 M 506.0006963784923 86.00000000000006 M 498.0006963784923 86.00000000000006 L 490.0006963784923 86.00000000000006 M 490.0006963784923 86.00000000000006 M 482.0006963784923 86.00000000000006 L 474.0006963784923 86.00000000000006 M 474.0006963784923 86.00000000000006 M 466.0006963784923 86.00000000000006 L 458.0006963784923 86.00000000000006 M 458.0006963784923 86.00000000000006 M 450.0006963784923 86.00000000000006 L 442.0006963784923 86.00000000000006 M 442.0006963784923 86.00000000000006 M 434.0006963784923 86.00000000000006 L 426.0006963784923 86.00000000000006 M 426.0006963784923 86.00000000000006 M 418.0006963784923 86.00000000000006 L 410.0006963784923 86.00000000000006 M 410.0006963784923 86.00000000000006 M 402.0006963784923 86.00000000000006 L 394.0006963784923 86.00000000000006 M 394.0006963784923 86.00000000000006 M 386.0006963784923 86.00000000000006 L 378.0006963784923 86.00000000000006 M 378.0006963784923 86.00000000000006 M 370.0006963784923 86.00000000000006 L 362.0006963784923 86.00000000000006 M 362.0006963784923 86.00000000000006 M 354.0006963784923 86.00000000000006 L 346.0006963784923 86.00000000000006 M 346.0006963784923 86.00000000000006 M 338.0006963784923 86.00000000000006 L 330.0006963784923 86.00000000000006 M 330.0006963784923 86.00000000000006 M 322.0006963784923 86.00000000000006 L 314.0006963784923 86.00000000000006 M 314.0006963784923 86.00000000000006 M 306.0006963784923 86.00000000000006 L 298.0006963784923 86.00000000000006 M 298.0006963784923 86.00000000000006 M 290.0006963784923 86.00000000000006 L 282.0006963784923 86.00000000000006 M 282.0006963784923 86.00000000000006 M 274.0006963784923 86.00000000000006 L 266.0006963784923 86.00000000000006 M 266.0006963784923 86.00000000000006 M 258.0006963784923 86.00000000000006 L 250.0006963784923 86.00000000000006 M 250.0006963784923 86.00000000000006 M 242.0006963784923 86.00000000000006 L 234.0006963784923 86.00000000000006 M 234.0006963784923 86.00000000000006 M 226.0006963784923 86.00000000000006 L 218.0006963784923 86.00000000000006 M 218.0006963784923 86.00000000000006 M 210.0006963784923 86.00000000000006 L 202.0006963784923 86.00000000000006 M 202.0006963784923 86.00000000000006 M 194.0006963784923 86.00000000000006 L 186.0006963784923 86.00000000000006 M 186.0006963784923 86.00000000000006 M 178.0006963784923 86.00000000000006 L 170.0006963784923 86.00000000000006 M 170.0006963784923 86.00000000000006 M 162.0006963784923 86.00000000000006 L 154.0006963784923 86.00000000000006 M 154.0006963784923 86.00000000000006 M 146.0006963784923 86.00000000000006 L 138.0006963784923 86.00000000000006 M 138.0006963784923 86.00000000000006 M 130.0006963784923 86.00000000000006 L 122.00069637849231 86.00000000000006 M 122.00069637849231 86.00000000000006 M 114.00069637849231 86.00000000000006 L 106.00069637849231 86.00000000000006 M 106.00069637849231 86.00000000000006 M 98.00069637849231 86.00000000000006 L 90.00069637849231 86.00000000000006 M 90.00069637849231 86.00000000000006 M 82.00069637849231 86.00000000000006 L 74.00069637849231 86.00000000000004 M 74.00069637849231 86.00000000000004 M 66.00069637849231 86.00000000000004 L 58.00069637849231 86.00000000000003 M 58.00069637849231 86.00000000000003 M 50.00069637849231 86.00000000000003 L 42.00069637849231 86.00000000000001 M 42.00069637849231 86.00000000000001 M 34.00069637849231 86.00000000000001 L 26.000696378492307 86 M 26.000696378492307 86" stroke-miterlimit="10"></path></g></g></g></g><g transform="translate(0,0) matrix(1,0,0,1,182.8,89.5)"><g><g transform="translate(0,0) scale(0.9,0.405)"><g><path fill="#EEEEEE" stroke="none" d="M 0 0 L 100 0 Q 100 0 100 0 L 100 100 Q 100 100 100 100 L 0 100 Q 0 100 0 100 L 0 0 Q 0 0 0 0 Z"></path><g transform="scale(1.1111111111111112,2.4691358024691357)"><path fill="none" stroke="#333333" d="M 0 0 L 90 0 Q 90 0 90 0 L 90 40.5 Q 90 40.5 90 40.5 L 0 40.5 Q 0 40.5 0 40.5 L 0 0 Q 0 0 0 0 Z" stroke-miterlimit="10" stroke-width="2"></path></g></g><g><g transform="scale(1.1111111111111112,2.4691358024691357)"><path fill="rgb(0,0,0)" stroke="none" d="M 1.8 0.81 L 1.8 39.285000000000004 L 87.3 39.285000000000004 L 87.3 1.215 L 2.7 1.215 Z" fill-opacity="0" opacity="0"></path><path fill="none" stroke="#3C7626" d="M 1.8 0.81 M 1.8 0.81 L 1.8 4.8100000000000005 M 1.8 4.8100000000000005 M 1.8 6.8100000000000005 L 1.8 10.81 M 1.8 10.81 M 1.8 12.81 L 1.8 16.810000000000002 M 1.8 16.810000000000002 M 1.8 18.810000000000002 L 1.8 22.810000000000002 M 1.8 22.810000000000002 M 1.8 24.810000000000002 L 1.8 28.810000000000002 M 1.8 28.810000000000002 M 1.8 30.810000000000002 L 1.8 34.81 M 1.8 34.81 M 1.8 36.81 L 1.8 39.285000000000004 L 3.3249999999999984 39.285000000000004 M 3.3249999999999984 39.285000000000004 M 5.324999999999998 39.285000000000004 L 9.325 39.285000000000004 M 9.325 39.285000000000004 M 11.325 39.285000000000004 L 15.325 39.285000000000004 M 15.325 39.285000000000004 M 17.325 39.285000000000004 L 21.325 39.285000000000004 M 21.325 39.285000000000004 M 23.325 39.285000000000004 L 27.325 39.285000000000004 M 27.325 39.285000000000004 M 29.325 39.285000000000004 L 33.325 39.285000000000004 M 33.325 39.285000000000004 M 35.325 39.285000000000004 L 39.325 39.285000000000004 M 39.325 39.285000000000004 M 41.325 39.285000000000004 L 45.325 39.285000000000004 M 45.325 39.285000000000004 M 47.325 39.285000000000004 L 51.325 39.285000000000004 M 51.325 39.285000000000004 M 53.325 39.285000000000004 L 57.325 39.285000000000004 M 57.325 39.285000000000004 M 59.325 39.285000000000004 L 63.325 39.285000000000004 M 63.325 39.285000000000004 M 65.325 39.285000000000004 L 69.325 39.285000000000004 M 69.325 39.285000000000004 M 71.325 39.285000000000004 L 75.325 39.285000000000004 M 75.325 39.285000000000004 M 77.325 39.285000000000004 L 81.325 39.285000000000004 M 81.325 39.285000000000004 M 83.325 39.285000000000004 L 87.3 39.285000000000004 L 87.3 39.26 M 87.3 39.26 M 87.3 37.26 L 87.3 33.26 M 87.3 33.26 M 87.3 31.259999999999998 L 87.3 27.259999999999998 M 87.3 27.259999999999998 M 87.3 25.259999999999998 L 87.3 21.259999999999998 M 87.3 21.259999999999998 M 87.3 19.259999999999998 L 87.3 15.259999999999998 M 87.3 15.259999999999998 M 87.3 13.259999999999998 L 87.3 9.259999999999998 M 87.3 9.259999999999998 M 87.3 7.259999999999998 L 87.3 3.259999999999998 M 87.3 3.259999999999998 M 87.3 1.259999999999998 L 87.3 1.215 L 83.345 1.215 M 83.345 1.215 M 81.345 1.215 L 77.345 1.215 M 77.345 1.215 M 75.345 1.215 L 71.345 1.215 M 71.345 1.215 M 69.345 1.215 L 65.345 1.215 M 65.345 1.215 M 63.345 1.215 L 59.345 1.215 M 59.345 1.215 M 57.345 1.215 L 53.345 1.215 M 53.345 1.215 M 51.345 1.215 L 47.345 1.215 M 47.345 1.215 M 45.345 1.215 L 41.345 1.215 M 41.345 1.215 M 39.345 1.215 L 35.345 1.215 M 35.345 1.215 M 33.345 1.215 L 29.345 1.215 M 29.345 1.215 M 27.345 1.215 L 23.345 1.215 M 23.345 1.215 M 21.345 1.215 L 17.345 1.215 M 17.345 1.215 M 15.344999999999999 1.215 L 11.344999999999999 1.215 M 11.344999999999999 1.215 M 9.344999999999999 1.215 L 5.344999999999999 1.215 M 5.344999999999999 1.215 M 3.344999999999999 1.215 L 2.7 1.215 Z" stroke-miterlimit="10" stroke-width="2" opacity="0"></path></g></g></g></g></g><g transform="scale(1,1) matrix(1,0,0,1,184.60000000000002,89.5) translate(2,6.25)"><text fill="#000000" stroke="none" font-family="Arial" font-size="12px" font-style="normal" font-weight="normal" text-decoration="none" x="19.199999999999996" y="11">English</text><text fill="#000000" stroke="none" font-family="Arial" font-size="12px" font-style="normal" font-weight="normal" text-decoration="none" x="60.199999999999996" y="11">
</text><text fill="#000000" stroke="none" font-family="Arial" font-size="12px" font-style="normal" font-weight="normal" text-decoration="none" x="3.1999999999999957" y="25">Pronunciation</text></g><g transform="translate(0,0) matrix(1,0,0,1,488,89.5)"><g><g transform="translate(0,0) scale(0.7,0.405)"><g><path fill="#EEEEEE" stroke="none" d="M 0 0 L 100 0 Q 100 0 100 0 L 100 100 Q 100 100 100 100 L 0 100 Q 0 100 0 100 L 0 0 Q 0 0 0 0 Z"></path><g transform="scale(1.4285714285714286,2.4691358024691357)"><path fill="none" stroke="#333333" d="M 0 0 L 70 0 Q 70 0 70 0 L 70 40.5 Q 70 40.5 70 40.5 L 0 40.5 Q 0 40.5 0 40.5 L 0 0 Q 0 0 0 0 Z" stroke-miterlimit="10" stroke-width="2"></path></g></g><g><g transform="scale(1.4285714285714286,2.4691358024691357)"><path fill="rgb(0,0,0)" stroke="none" d="M 1.4 0.81 L 1.4 39.285000000000004 L 67.89999999999999 39.285000000000004 L 67.89999999999999 1.215 L 2.0999999999999996 1.215 Z" fill-opacity="0" opacity="0"></path><path fill="none" stroke="#3C7626" d="M 1.4 0.81 M 1.4 0.81 L 1.4 4.8100000000000005 M 1.4 4.8100000000000005 M 1.4 6.8100000000000005 L 1.4 10.81 M 1.4 10.81 M 1.4 12.81 L 1.4 16.810000000000002 M 1.4 16.810000000000002 M 1.4 18.810000000000002 L 1.4 22.810000000000002 M 1.4 22.810000000000002 M 1.4 24.810000000000002 L 1.4 28.810000000000002 M 1.4 28.810000000000002 M 1.4 30.810000000000002 L 1.4 34.81 M 1.4 34.81 M 1.4 36.81 L 1.4 39.285000000000004 L 2.9249999999999985 39.285000000000004 M 2.9249999999999985 39.285000000000004 M 4.924999999999999 39.285000000000004 L 8.924999999999999 39.285000000000004 M 8.924999999999999 39.285000000000004 M 10.924999999999999 39.285000000000004 L 14.924999999999999 39.285000000000004 M 14.924999999999999 39.285000000000004 M 16.924999999999997 39.285000000000004 L 20.924999999999997 39.285000000000004 M 20.924999999999997 39.285000000000004 M 22.924999999999997 39.285000000000004 L 26.924999999999997 39.285000000000004 M 26.924999999999997 39.285000000000004 M 28.924999999999997 39.285000000000004 L 32.925 39.285000000000004 M 32.925 39.285000000000004 M 34.925 39.285000000000004 L 38.925 39.285000000000004 M 38.925 39.285000000000004 M 40.925 39.285000000000004 L 44.925 39.285000000000004 M 44.925 39.285000000000004 M 46.925 39.285000000000004 L 50.925 39.285000000000004 M 50.925 39.285000000000004 M 52.925 39.285000000000004 L 56.925 39.285000000000004 M 56.925 39.285000000000004 M 58.925 39.285000000000004 L 62.925 39.285000000000004 M 62.925 39.285000000000004 M 64.925 39.285000000000004 L 67.89999999999999 39.285000000000004 L 67.89999999999999 38.26 M 67.89999999999999 38.26 M 67.89999999999999 36.26 L 67.89999999999999 32.26 M 67.89999999999999 32.26 M 67.89999999999999 30.259999999999998 L 67.89999999999999 26.259999999999998 M 67.89999999999999 26.259999999999998 M 67.89999999999999 24.259999999999998 L 67.89999999999999 20.259999999999998 M 67.89999999999999 20.259999999999998 M 67.89999999999999 18.259999999999998 L 67.89999999999999 14.259999999999998 M 67.89999999999999 14.259999999999998 M 67.89999999999999 12.259999999999998 L 67.89999999999999 8.259999999999998 M 67.89999999999999 8.259999999999998 M 67.89999999999999 6.259999999999998 L 67.89999999999999 2.259999999999998 M 67.89999999999999 2.259999999999998 M 66.945 1.215 L 62.94499999999999 1.215 M 62.94499999999999 1.215 M 60.94499999999999 1.215 L 56.94499999999999 1.215 M 56.94499999999999 1.215 M 54.94499999999999 1.215 L 50.94499999999999 1.215 M 50.94499999999999 1.215 M 48.94499999999999 1.215 L 44.94499999999999 1.215 M 44.94499999999999 1.215 M 42.94499999999999 1.215 L 38.94499999999999 1.215 M 38.94499999999999 1.215 M 36.94499999999999 1.215 L 32.94499999999999 1.215 M 32.94499999999999 1.215 M 30.944999999999993 1.215 L 26.944999999999993 1.215 M 26.944999999999993 1.215 M 24.944999999999993 1.215 L 20.944999999999993 1.215 M 20.944999999999993 1.215 M 18.944999999999993 1.215 L 14.944999999999993 1.215 M 14.944999999999993 1.215 M 12.944999999999993 1.215 L 8.944999999999993 1.215 M 8.944999999999993 1.215 M 6.944999999999993 1.215 L 2.944999999999993 1.215 M 2.944999999999993 1.215 Z" stroke-miterlimit="10" stroke-width="2" opacity="0"></path></g></g></g></g></g><g transform="scale(1,1) matrix(1,0,0,1,489.4,89.5) translate(2,6.25)"><text fill="#000000" stroke="none" font-family="Arial" font-size="12px" font-style="normal" font-weight="normal" text-decoration="none" x="4.100000000000001" y="11">Katakana</text><text fill="#000000" stroke="none" font-family="Arial" font-size="12px" font-style="normal" font-weight="normal" text-decoration="none" x="56.1" y="11">
</text><text fill="#000000" stroke="none" font-family="Arial" font-size="12px" font-style="normal" font-weight="normal" text-decoration="none" x="0.6000000000000014" y="25">Transcriber</text></g><g transform="translate(0,0) matrix(1,0,0,1,632,89.5)"><g><g transform="translate(0,0) scale(0.72,0.405)"><g><path fill="#EEEEEE" stroke="none" d="M 0 0 L 100 0 Q 100 0 100 0 L 100 100 Q 100 100 100 100 L 0 100 Q 0 100 0 100 L 0 0 Q 0 0 0 0 Z"></path><g transform="scale(1.3888888888888888,2.4691358024691357)"><path fill="none" stroke="#333333" d="M 0 0 L 72 0 Q 72 0 72 0 L 72 40.5 Q 72 40.5 72 40.5 L 0 40.5 Q 0 40.5 0 40.5 L 0 0 Q 0 0 0 0 Z" stroke-miterlimit="10" stroke-width="2"></path></g></g><g><g transform="scale(1.3888888888888888,2.4691358024691357)"><path fill="rgb(0,0,0)" stroke="none" d="M 1.44 0.81 L 1.44 39.285000000000004 L 69.84 39.285000000000004 L 69.84 1.215 L 2.16 1.215 Z" fill-opacity="0" opacity="0"></path><path fill="none" stroke="#3C7626" d="M 1.44 0.81 M 1.44 0.81 L 1.44 4.8100000000000005 M 1.44 4.8100000000000005 M 1.44 6.8100000000000005 L 1.44 10.81 M 1.44 10.81 M 1.44 12.81 L 1.44 16.810000000000002 M 1.44 16.810000000000002 M 1.44 18.810000000000002 L 1.44 22.810000000000002 M 1.44 22.810000000000002 M 1.44 24.810000000000002 L 1.44 28.810000000000002 M 1.44 28.810000000000002 M 1.44 30.810000000000002 L 1.44 34.81 M 1.44 34.81 M 1.44 36.81 L 1.44 39.285000000000004 L 2.9649999999999985 39.285000000000004 M 2.9649999999999985 39.285000000000004 M 4.964999999999998 39.285000000000004 L 8.964999999999998 39.285000000000004 M 8.964999999999998 39.285000000000004 M 10.964999999999998 39.285000000000004 L 14.964999999999998 39.285000000000004 M 14.964999999999998 39.285000000000004 M 16.964999999999996 39.285000000000004 L 20.964999999999996 39.285000000000004 M 20.964999999999996 39.285000000000004 M 22.964999999999996 39.285000000000004 L 26.964999999999996 39.285000000000004 M 26.964999999999996 39.285000000000004 M 28.964999999999996 39.285000000000004 L 32.964999999999996 39.285000000000004 M 32.964999999999996 39.285000000000004 M 34.964999999999996 39.285000000000004 L 38.964999999999996 39.285000000000004 M 38.964999999999996 39.285000000000004 M 40.964999999999996 39.285000000000004 L 44.964999999999996 39.285000000000004 M 44.964999999999996 39.285000000000004 M 46.964999999999996 39.285000000000004 L 50.964999999999996 39.285000000000004 M 50.964999999999996 39.285000000000004 M 52.964999999999996 39.285000000000004 L 56.964999999999996 39.285000000000004 M 56.964999999999996 39.285000000000004 M 58.964999999999996 39.285000000000004 L 62.964999999999996 39.285000000000004 M 62.964999999999996 39.285000000000004 M 64.965 39.285000000000004 L 68.965 39.285000000000004 M 68.965 39.285000000000004 M 69.84 38.160000000000004 L 69.84 34.160000000000004 M 69.84 34.160000000000004 M 69.84 32.160000000000004 L 69.84 28.160000000000004 M 69.84 28.160000000000004 M 69.84 26.160000000000004 L 69.84 22.160000000000004 M 69.84 22.160000000000004 M 69.84 20.160000000000004 L 69.84 16.160000000000004 M 69.84 16.160000000000004 M 69.84 14.160000000000004 L 69.84 10.160000000000004 M 69.84 10.160000000000004 M 69.84 8.160000000000004 L 69.84 4.160000000000004 M 69.84 4.160000000000004 M 69.84 2.1600000000000037 L 69.84 1.215 L 66.78500000000001 1.215 M 66.78500000000001 1.215 M 64.78500000000001 1.215 L 60.78500000000001 1.215 M 60.78500000000001 1.215 M 58.78500000000001 1.215 L 54.78500000000001 1.215 M 54.78500000000001 1.215 M 52.78500000000001 1.215 L 48.78500000000001 1.215 M 48.78500000000001 1.215 M 46.78500000000001 1.215 L 42.78500000000001 1.215 M 42.78500000000001 1.215 M 40.78500000000001 1.215 L 36.78500000000001 1.215 M 36.78500000000001 1.215 M 34.78500000000001 1.215 L 30.78500000000001 1.215 M 30.78500000000001 1.215 M 28.78500000000001 1.215 L 24.78500000000001 1.215 M 24.78500000000001 1.215 M 22.78500000000001 1.215 L 18.78500000000001 1.215 M 18.78500000000001 1.215 M 16.78500000000001 1.215 L 12.78500000000001 1.215 M 12.78500000000001 1.215 M 10.78500000000001 1.215 L 6.785000000000011 1.215 M 6.785000000000011 1.215 M 4.785000000000011 1.215 L 2.16 1.215 Z" stroke-miterlimit="10" stroke-width="2" opacity="0"></path></g></g></g></g></g><g transform="scale(1,1) matrix(1,0,0,1,633.44,89.5) translate(2,6.25)"><text fill="#000000" stroke="none" font-family="Arial" font-size="12px" font-style="normal" font-weight="normal" text-decoration="none" x="4.060000000000002" y="11">Japanese </text><text fill="#000000" stroke="none" font-family="Arial" font-size="12px" font-style="normal" font-weight="normal" text-decoration="none" x="24.060000000000002" y="25">LM</text></g><g transform="translate(0,0) matrix(-1,1.2246063538223773e-16,-1.2246063538223773e-16,-1,632,120.5)"><g><g transform="translate(0,0) scale(0.74,0.2)"><g><g transform="scale(1.3513513513513513,5)"><path fill="#CCCCCC" stroke="#333333" d="M 0 6 L 64 6 L 64 0 L 74 10 L 64 20 L 64 14 L 0 14 L 0 6 L 0 6 Z" stroke-miterlimit="10" stroke-width="2"></path></g></g></g></g></g><g transform="translate(0,0) matrix(-1,1.2246063538223773e-16,-1.2246063538223773e-16,-1,488,121.5)"><g><g transform="translate(0,0) scale(0.74,0.2)"><g><g transform="scale(1.3513513513513513,5)"><path fill="#CCCCCC" stroke="#333333" d="M 0 6 L 64 6 L 64 0 L 74 10 L 64 20 L 64 14 L 0 14 L 0 6 L 0 6 Z" stroke-miterlimit="10" stroke-width="2"></path></g></g></g></g></g><g transform="translate(0,0) matrix(-1,1.2246063538223773e-16,-1.2246063538223773e-16,-1,344,120.5)"><g><g transform="translate(0,0) scale(0.71,0.2)"><g><g transform="scale(1.4084507042253522,5)"><path fill="#CCCCCC" stroke="#333333" d="M 0 6 L 61 6 L 61 0 L 71 10 L 61 20 L 61 14 L 0 14 L 0 6 L 0 6 Z" stroke-miterlimit="10" stroke-width="2"></path></g></g></g></g></g><g transform="translate(0,0) matrix(-1,1.2246063538223773e-16,-1.2246063538223773e-16,-1,182.8,120.5)"><g><g transform="translate(0,0) scale(0.7,0.2)"><g><g transform="scale(1.4285714285714286,5)"><path fill="#CCCCCC" stroke="#333333" d="M 0 6 L 59.99999999999999 6 L 59.99999999999999 0 L 70 10 L 59.99999999999999 20 L 59.99999999999999 14 L 0 14 L 0 6 L 0 6 Z" stroke-miterlimit="10" stroke-width="2"></path></g></g></g></g></g><g transform="scale(1,1) matrix(1,0,0,1,539,136.75) translate(2,0)"><text fill="#000000" stroke="none" font-family="Arial" font-size="12px" font-style="normal" font-weight="normal" text-decoration="none" x="9.139999999999986" y="11">コンピューター</text></g><g transform="scale(1,1) matrix(1,0,0,1,41.80000000000001,104) translate(2,0)"><text fill="#000000" stroke="none" font-family="Arial" font-size="12px" font-style="normal" font-weight="normal" text-decoration="none" x="7.5" y="11">computer</text></g><g transform="scale(1,1) matrix(1,0,0,1,405,134.5) translate(2,0)"><text fill="#000000" stroke="none" font-family="Arial" font-size="12px" font-style="normal" font-weight="normal" text-decoration="none" x="5" y="11">ko n pyu u ta a</text></g><g transform="scale(1,1) matrix(1,0,0,1,254,127.5) translate(2,7)"><text fill="#000000" stroke="none" font-family="Arial" font-size="12px" font-style="normal" font-weight="normal" text-decoration="none" x="3.5" y="11">k ah m p y uw t er&#160;</text></g><g transform="translate(0,0) matrix(1,0,0,1,344,92)"><g><g transform="translate(0,0) scale(0.7,0.395)"><g><path fill="#EEEEEE" stroke="none" d="M 0 0 L 100 0 Q 100 0 100 0 L 100 100 Q 100 100 100 100 L 0 100 Q 0 100 0 100 L 0 0 Q 0 0 0 0 Z"></path><g transform="scale(1.4285714285714286,2.531645569620253)"><path fill="none" stroke="#333333" d="M 0 0 L 70 0 Q 70 0 70 0 L 70 39.5 Q 70 39.5 70 39.5 L 0 39.5 Q 0 39.5 0 39.5 L 0 0 Q 0 0 0 0 Z" stroke-miterlimit="10" stroke-width="2"></path></g></g><g><g transform="scale(1.4285714285714286,2.531645569620253)"><path fill="rgb(0,0,0)" stroke="none" d="M 1.4 0.79 L 1.4 38.315000000000005 L 67.89999999999999 38.315000000000005 L 67.89999999999999 1.185 L 2.0999999999999996 1.185 Z" fill-opacity="0" opacity="0"></path><path fill="none" stroke="#3C7626" d="M 1.4 0.79 M 1.4 0.79 L 1.4 4.79 M 1.4 4.79 M 1.4 6.79 L 1.4 10.79 M 1.4 10.79 M 1.4 12.79 L 1.4 16.79 M 1.4 16.79 M 1.4 18.79 L 1.4 22.79 M 1.4 22.79 M 1.4 24.79 L 1.4 28.79 M 1.4 28.79 M 1.4 30.79 L 1.4 34.79 M 1.4 34.79 M 1.4 36.79 L 1.4 38.315000000000005 L 3.8749999999999942 38.315000000000005 M 3.8749999999999942 38.315000000000005 M 5.874999999999995 38.315000000000005 L 9.874999999999995 38.315000000000005 M 9.874999999999995 38.315000000000005 M 11.874999999999995 38.315000000000005 L 15.874999999999995 38.315000000000005 M 15.874999999999995 38.315000000000005 M 17.874999999999993 38.315000000000005 L 21.874999999999993 38.315000000000005 M 21.874999999999993 38.315000000000005 M 23.874999999999993 38.315000000000005 L 27.874999999999993 38.315000000000005 M 27.874999999999993 38.315000000000005 M 29.874999999999993 38.315000000000005 L 33.87499999999999 38.315000000000005 M 33.87499999999999 38.315000000000005 M 35.87499999999999 38.315000000000005 L 39.87499999999999 38.315000000000005 M 39.87499999999999 38.315000000000005 M 41.87499999999999 38.315000000000005 L 45.87499999999999 38.315000000000005 M 45.87499999999999 38.315000000000005 M 47.87499999999999 38.315000000000005 L 51.87499999999999 38.315000000000005 M 51.87499999999999 38.315000000000005 M 53.87499999999999 38.315000000000005 L 57.87499999999999 38.315000000000005 M 57.87499999999999 38.315000000000005 M 59.87499999999999 38.315000000000005 L 63.87499999999999 38.315000000000005 M 63.87499999999999 38.315000000000005 M 65.875 38.315000000000005 L 67.89999999999999 38.315000000000005 L 67.89999999999999 36.339999999999996 M 67.89999999999999 36.339999999999996 M 67.89999999999999 34.339999999999996 L 67.89999999999999 30.339999999999996 M 67.89999999999999 30.339999999999996 M 67.89999999999999 28.339999999999996 L 67.89999999999999 24.339999999999996 M 67.89999999999999 24.339999999999996 M 67.89999999999999 22.339999999999996 L 67.89999999999999 18.339999999999996 M 67.89999999999999 18.339999999999996 M 67.89999999999999 16.339999999999996 L 67.89999999999999 12.339999999999996 M 67.89999999999999 12.339999999999996 M 67.89999999999999 10.339999999999996 L 67.89999999999999 6.339999999999996 M 67.89999999999999 6.339999999999996 M 67.89999999999999 4.339999999999996 L 67.89999999999999 1.185 L 67.05499999999999 1.185 M 67.05499999999999 1.185 M 65.05499999999999 1.185 L 61.05499999999999 1.185 M 61.05499999999999 1.185 M 59.05499999999999 1.185 L 55.05499999999999 1.185 M 55.05499999999999 1.185 M 53.05499999999999 1.185 L 49.05499999999999 1.185 M 49.05499999999999 1.185 M 47.05499999999999 1.185 L 43.05499999999999 1.185 M 43.05499999999999 1.185 M 41.05499999999999 1.185 L 37.05499999999999 1.185 M 37.05499999999999 1.185 M 35.05499999999999 1.185 L 31.054999999999993 1.185 M 31.054999999999993 1.185 M 29.054999999999993 1.185 L 25.054999999999993 1.185 M 25.054999999999993 1.185 M 23.054999999999993 1.185 L 19.054999999999993 1.185 M 19.054999999999993 1.185 M 17.054999999999993 1.185 L 13.054999999999993 1.185 M 13.054999999999993 1.185 M 11.054999999999993 1.185 L 7.054999999999993 1.185 M 7.054999999999993 1.185 M 5.054999999999993 1.185 L 2.0999999999999996 1.185 Z" stroke-miterlimit="10" stroke-width="2" opacity="0"></path></g></g></g></g></g><g transform="scale(1,1) matrix(1,0,0,1,346,92) translate(2,-8.25)"><text fill="#000000" stroke="none" font-family="Arial" font-size="12px" font-style="normal" font-weight="normal" text-decoration="none" x="29.5" y="11">&#160;</text><text fill="#000000" stroke="none" font-family="Arial" font-size="12px" font-style="normal" font-weight="normal" text-decoration="none" x="4.5" y="25">Phoneme</text><text fill="#000000" stroke="none" font-family="Arial" font-size="12px" font-style="normal" font-weight="normal" text-decoration="none" x="7" y="39">Mapping</text><text fill="#000000" stroke="none" font-family="Arial" font-size="12px" font-style="normal" font-weight="normal" text-decoration="none" x="29.5" y="53">&#160;</text></g></g></svg>